<svg width="85" height="61" viewBox="0 0 85 61" fill="none" xmlns="http://www.w3.org/2000/svg">
<path d="M15.554 -18L28.5971 -7.51326C17.3165 -0.172567 7.09352 13.8097 6.03597 24.9956C6.38849 24.9956 8.85611 24.646 10.6187 24.646C20.4892 24.646 27.5396 31.9867 27.5396 42.4735C27.5396 52.6106 19.4317 61 8.85611 61C-2.77698 61 -13 51.562 -13 34.4336C-13 13.1106 -0.661873 -6.46461 15.554 -18ZM71.9568 -18L85 -7.51326C73.7194 -0.172567 63.8489 13.8097 62.4388 24.9956C62.7914 24.9956 65.259 24.646 67.0216 24.646C76.8921 24.646 84.295 31.9867 84.295 42.4735C84.295 52.6106 75.8345 61 65.259 61C53.6259 61 43.4029 51.562 43.4029 34.4336C43.4029 13.1106 55.741 -6.46461 71.9568 -18Z" fill="#27AE60" fill-opacity="0.2"/>
</svg>
